<svg width="120" height="120" viewBox="0 0 120 120" fill="none" xmlns="http://www.w3.org/2000/svg">
  <!-- Sun -->
  <circle cx="35" cy="35" r="15" fill="#FFD93D">
    <animate attributeName="r" values="14;16;14" dur="2s" repeatCount="indefinite"/>
  </circle>

  <!-- Sun Rays (with rotation animation) -->
  <g stroke="#FFD93D" stroke-width="3">
    <g>
      <animateTransform attributeName="transform" type="rotate" values="0 35 35;360 35 35" dur="6s" repeatCount="indefinite"/>
      <line x1="35" y1="10" x2="35" y2="0"/>
      <line x1="35" y1="70" x2="35" y2="60"/>
      <line x1="10" y1="35" x2="0" y2="35"/>
      <line x1="70" y1="35" x2="60" y2="35"/>
      <line x1="50" y1="50" x2="58" y2="58"/>
      <line x1="50" y1="20" x2="58" y2="12"/>
      <line x1="20" y1="50" x2="12" y2="58"/>
      <line x1="20" y1="20" x2="12" y2="12"/>
    </g>
  </g>

  <!-- Cloud (floating animation) -->
  <g>
    <animateTransform attributeName="transform" type="translate" values="0,0;2,0;0,0;-2,0;0,0" dur="4s" repeatCount="indefinite"/>
    <ellipse cx="70" cy="50" rx="20" ry="15" fill="#B0C4DE"/>
    <ellipse cx="90" cy="55" rx="15" ry="12" fill="#B0C4DE"/>
    <ellipse cx="55" cy="55" rx="18" ry="13" fill="#B0C4DE"/>
  </g>

  <!-- Raindrops (falling animation) -->
  <ellipse cx="60" cy="75" rx="3" ry="5" fill="#00A8E8">
    <animateTransform attributeName="transform" type="translate" values="0,0;0,10;0,0" dur="1.5s" repeatCount="indefinite"/>
  </ellipse>

  <ellipse cx="75" cy="80" rx="3" ry="5" fill="#00A8E8">
    <animateTransform attributeName="transform" type="translate" values="0,0;0,10;0,0" dur="1.5s" begin="0.5s" repeatCount="indefinite"/>
  </ellipse>

  <ellipse cx="90" cy="75" rx="3" ry="5" fill="#00A8E8">
    <animateTransform attributeName="transform" type="translate" values="0,0;0,10;0,0" dur="1.5s" begin="1s" repeatCount="indefinite"/>
  </ellipse>

</svg>
